<?xml version="1.0" encoding="UTF-8"?>
<svg id="Layer_2" data-name="Layer 2" xmlns="http://www.w3.org/2000/svg" viewBox="0 0 483.7 483.7">
  <defs>
    <style>
      .cls-1 {
        fill: #83c241;
      }
    </style>
  </defs>
  <path class="cls-1" d="m241.85,483.7C108.49,483.7,0,375.2,0,241.85S108.49,0,241.85,0s241.85,108.49,241.85,241.85-108.49,241.85-241.85,241.85Zm0-447.99c-113.66,0-206.14,92.47-206.14,206.14s92.47,206.14,206.14,206.14,206.14-92.48,206.14-206.14S355.51,35.71,241.85,35.71Z"/>
  <path class="cls-1" d="m352.49,222.31h-181.92l61.24-61.24c6.97-6.97,6.97-18.28,0-25.25s-18.28-6.97-25.25,0l-89.3,89.3c-3.8,3.8-5.51,8.87-5.17,13.84-.34,4.96,1.38,10.04,5.17,13.84l89.3,89.3c3.49,3.49,8.06,5.23,12.62,5.23s9.14-1.74,12.62-5.23c6.97-6.97,6.97-18.28,0-25.25l-58.82-58.82h179.49c9.86,0,17.85-7.99,17.85-17.85s-7.99-17.85-17.85-17.85Z"/>
</svg>